<svg width="0" height="0" class="hidden">
  <symbol fill="none" xmlns="http://www.w3.org/2000/svg" viewBox="0 0 20 19" id="help">
    <path d="M16.6667 8.16667C16.6667 6.39856 15.9643 4.70286 14.7141 3.45262C13.4638 2.20238 11.7681 1.5 10 1.5C8.23193 1.5 6.53624 2.20238 5.286 3.45262C4.03575 4.70286 3.33337 6.39856 3.33337 8.16667" stroke-width="1.5" stroke-linecap="round" stroke-linejoin="round"></path>
    <path d="M16.6667 14V14.4167C16.6667 14.8587 16.4911 15.2826 16.1785 15.5952C15.866 15.9077 15.442 16.0833 15 16.0833H12.0834M1.66669 11.865V10.3017C1.66674 9.93001 1.79102 9.56903 2.01977 9.27611C2.24853 8.98319 2.56862 8.77513 2.92919 8.685L4.37919 8.32167C4.45287 8.30332 4.52976 8.30199 4.60403 8.31778C4.6783 8.33358 4.748 8.36608 4.80783 8.41283C4.86767 8.45957 4.91607 8.51933 4.94937 8.58757C4.98267 8.65581 4.99999 8.73074 5.00002 8.80667V13.3592C5.00015 13.4353 4.98291 13.5104 4.94962 13.5788C4.91633 13.6472 4.86786 13.7071 4.8079 13.754C4.74795 13.8008 4.67809 13.8334 4.60365 13.8492C4.52921 13.8649 4.45216 13.8635 4.37835 13.845L2.92835 13.4825C2.56794 13.3922 2.24803 13.1841 2.01945 12.8912C1.79086 12.5983 1.6667 12.2374 1.66669 11.8658V11.865ZM18.3334 11.865V10.3017C18.3333 9.93001 18.209 9.56903 17.9803 9.27611C17.7515 8.98319 17.4314 8.77513 17.0709 8.685L15.6209 8.32167C15.5472 8.30332 15.4703 8.30199 15.396 8.31778C15.3217 8.33358 15.252 8.36608 15.1922 8.41283C15.1324 8.45957 15.084 8.51933 15.0507 8.58757C15.0174 8.65581 15 8.73074 15 8.80667V13.3592C14.9999 13.4352 15.0171 13.5102 15.0504 13.5785C15.0836 13.6469 15.132 13.7067 15.1919 13.7536C15.2517 13.8004 15.3215 13.833 15.3958 13.8488C15.4701 13.8647 15.5471 13.8634 15.6209 13.845L17.0709 13.4825C17.4314 13.3924 17.7515 13.1843 17.9803 12.8914C18.209 12.5985 18.3333 12.2375 18.3334 11.8658V11.865Z" stroke-width="1.5"></path>
    <path d="M11.25 17.3333H8.75C8.41848 17.3333 8.10054 17.2016 7.86612 16.9672C7.6317 16.7328 7.5 16.4149 7.5 16.0833C7.5 15.7518 7.6317 15.4339 7.86612 15.1995C8.10054 14.965 8.41848 14.8333 8.75 14.8333H11.25C11.5815 14.8333 11.8995 14.965 12.1339 15.1995C12.3683 15.4339 12.5 15.7518 12.5 16.0833C12.5 16.4149 12.3683 16.7328 12.1339 16.9672C11.8995 17.2016 11.5815 17.3333 11.25 17.3333Z" stroke-width="1.5"></path>
  </symbol>

  <symbol fill="none" xmlns="http://www.w3.org/2000/svg" viewBox="0 0 20 20" id="events">
    <path d="M6.66669 1.66667V4.16667" stroke-width="1.5" stroke-miterlimit="10" stroke-linecap="round" stroke-linejoin="round"></path>
    <path d="M13.3333 1.66667V4.16667" stroke-width="1.5" stroke-miterlimit="10" stroke-linecap="round" stroke-linejoin="round"></path>
    <path d="M2.91669 7.575H17.0834" stroke-width="1.5" stroke-miterlimit="10" stroke-linecap="round" stroke-linejoin="round"></path>
    <path d="M17.5 7.08334V14.1667C17.5 16.6667 16.25 18.3333 13.3333 18.3333H6.66667C3.75 18.3333 2.5 16.6667 2.5 14.1667V7.08334C2.5 4.58334 3.75 2.91667 6.66667 2.91667H13.3333C16.25 2.91667 17.5 4.58334 17.5 7.08334Z" stroke-width="1.5" stroke-miterlimit="10" stroke-linecap="round" stroke-linejoin="round"></path>
    <path d="M13.0789 11.4167H13.0864" stroke-width="2" stroke-linecap="round" stroke-linejoin="round"></path>
    <path d="M13.0789 13.9167H13.0864" stroke-width="2" stroke-linecap="round" stroke-linejoin="round"></path>
    <path d="M9.99626 11.4167H10.0037" stroke-width="2" stroke-linecap="round" stroke-linejoin="round"></path>
    <path d="M9.99626 13.9167H10.0037" stroke-width="2" stroke-linecap="round" stroke-linejoin="round"></path>
    <path d="M6.91191 11.4167H6.91939" stroke-width="2" stroke-linecap="round" stroke-linejoin="round"></path>
    <path d="M6.91191 13.9167H6.91939" stroke-width="2" stroke-linecap="round" stroke-linejoin="round"></path>
  </symbol>
  
  <symbol fill="none" xmlns="http://www.w3.org/2000/svg" viewBox="0 0 20 20" id="resources">
    <path d="M17.5 5.83333V14.1667C17.5 16.6667 16.25 18.3333 13.3333 18.3333H6.66667C3.75 18.3333 2.5 16.6667 2.5 14.1667V5.83333C2.5 3.33333 3.75 1.66666 6.66667 1.66666H13.3333C16.25 1.66666 17.5 3.33333 17.5 5.83333Z" stroke-width="1.5" stroke-miterlimit="10" stroke-linecap="round" stroke-linejoin="round"></path>
    <path d="M12.0833 3.75V5.41667C12.0833 6.33333 12.8333 7.08333 13.75 7.08333H15.4166" stroke-width="1.5" stroke-miterlimit="10" stroke-linecap="round" stroke-linejoin="round"></path>
    <path d="M6.66669 10.8333H10" stroke-width="1.5" stroke-miterlimit="10" stroke-linecap="round" stroke-linejoin="round"></path>
    <path d="M6.66669 14.1667H13.3334" stroke-width="1.5" stroke-miterlimit="10" stroke-linecap="round" stroke-linejoin="round"></path>
  </symbol>
  
  <symbol fill="none" xmlns="http://www.w3.org/2000/svg" viewBox="0 0 20 20" id="finance">
    <path d="M7.22656 11.9415C7.22656 13.0165 8.05156 13.8832 9.07656 13.8832H11.1682C12.0599 13.8832 12.7849 13.1249 12.7849 12.1915C12.7849 11.1749 12.3432 10.8165 11.6849 10.5832L8.32656 9.41655C7.66823 9.18321 7.22656 8.82488 7.22656 7.80821C7.22656 6.87488 7.95156 6.11655 8.84323 6.11655H10.9349C11.9599 6.11655 12.7849 6.98321 12.7849 8.05821" stroke-width="1.5" stroke-linecap="round" stroke-linejoin="round"></path>
    <path d="M10 5V15" stroke-width="1.5" stroke-linecap="round" stroke-linejoin="round"></path>
    <path d="M10 18.3333C14.6024 18.3333 18.3334 14.6024 18.3334 9.99999C18.3334 5.39762 14.6024 1.66666 10 1.66666C5.39765 1.66666 1.66669 5.39762 1.66669 9.99999C1.66669 14.6024 5.39765 18.3333 10 18.3333Z" stroke-width="1.5" stroke-linecap="round" stroke-linejoin="round"></path>
  </symbol>
  
  <symbol fill="none" xmlns="http://www.w3.org/2000/svg" viewBox="0 0 24 24" id="home">
    <path d="M9.02024 2.84004L3.63024 7.04004C2.73024 7.74004 2.00024 9.23004 2.00024 10.36V17.77C2.00024 20.09 3.89024 21.99 6.21024 21.99H17.7902C20.1102 21.99 22.0002 20.09 22.0002 17.78V10.5C22.0002 9.29004 21.1902 7.74004 20.2002 7.05004L14.0202 2.72004C12.6202 1.74004 10.3702 1.79004 9.02024 2.84004Z" stroke-width="1.5" stroke-linecap="round" stroke-linejoin="round"></path>
    <path d="M12 17.99V14.99" stroke-width="1.5" stroke-linecap="round" stroke-linejoin="round"></path>
  </symbol>
  
  <symbol fill="none" xmlns="http://www.w3.org/2000/svg" viewBox="0 0 20 20" id="logout">
    <path d="M7.41669 6.3C7.67502 3.3 9.21669 2.075 12.5917 2.075H12.7C16.425 2.075 17.9167 3.56666 17.9167 7.29166V12.725C17.9167 16.45 16.425 17.9417 12.7 17.9417H12.5917C9.24169 17.9417 7.70002 16.7333 7.42502 13.7833" stroke-width="1.5" stroke-linecap="round" stroke-linejoin="round"></path>
    <path d="M12.5 10H3.01666" stroke-width="1.5" stroke-linecap="round" stroke-linejoin="round"></path>
    <path d="M4.87498 7.20833L2.08331 10L4.87498 12.7917" stroke-width="1.5" stroke-linecap="round" stroke-linejoin="round"></path>
  </symbol>
  
  <symbol fill="none" xmlns="http://www.w3.org/2000/svg" viewBox="0 0 20 20" id="settings">
    <path d="M9.99989 7.76667C10.9916 7.76667 11.7999 6.95833 11.7999 5.96667C11.7999 4.975 10.9916 4.16667 9.99989 4.16667C9.00822 4.16667 8.19989 4.975 8.19989 5.96667C8.19989 6.95833 9.00822 7.76667 9.99989 7.76667Z" stroke-width="1.5" stroke-linecap="round" stroke-linejoin="round"></path>
    <path d="M5.65822 15.8333C6.64988 15.8333 7.45821 15.0249 7.45821 14.0333C7.45821 13.0416 6.64988 12.2333 5.65822 12.2333C4.66655 12.2333 3.85822 13.0416 3.85822 14.0333C3.85822 15.0249 4.65822 15.8333 5.65822 15.8333Z" stroke-width="1.5" stroke-linecap="round" stroke-linejoin="round"></path>
    <path d="M14.3415 15.8333C15.3332 15.8333 16.1415 15.0249 16.1415 14.0333C16.1415 13.0416 15.3332 12.2333 14.3415 12.2333C13.3498 12.2333 12.5415 13.0416 12.5415 14.0333C12.5415 15.0249 13.3498 15.8333 14.3415 15.8333Z" stroke-width="1.5" stroke-linecap="round" stroke-linejoin="round"></path>
  </symbol>
  
  <symbol fill="none" xmlns="http://www.w3.org/2000/svg" viewBox="0 0 20 20" id="departments">
    <path d="M7.63332 9.05832C7.54999 9.04999 7.44999 9.04999 7.35832 9.05832C5.37499 8.99166 3.79999 7.36666 3.79999 5.36666C3.79999 3.32499 5.44999 1.66666 7.49999 1.66666C9.54165 1.66666 11.2 3.32499 11.2 5.36666C11.1917 7.36666 9.61665 8.99166 7.63332 9.05832Z" stroke-width="1.5" stroke-linecap="round" stroke-linejoin="round"></path>
    <path d="M13.675 3.33333C15.2917 3.33333 16.5917 4.64166 16.5917 6.25C16.5917 7.825 15.3417 9.10833 13.7833 9.16666C13.7167 9.15833 13.6417 9.15833 13.5667 9.16666" stroke-width="1.5" stroke-linecap="round" stroke-linejoin="round"></path>
    <path d="M3.46666 12.1333C1.45 13.4833 1.45 15.6833 3.46666 17.025C5.75833 18.5583 9.51666 18.5583 11.8083 17.025C13.825 15.675 13.825 13.475 11.8083 12.1333C9.525 10.6083 5.76666 10.6083 3.46666 12.1333Z" stroke-width="1.5" stroke-linecap="round" stroke-linejoin="round"></path>
    <path d="M15.2833 16.6667C15.8833 16.5417 16.45 16.3 16.9167 15.9417C18.2167 14.9667 18.2167 13.3583 16.9167 12.3833C16.4583 12.0333 15.9 11.8 15.3083 11.6667" stroke-width="1.5" stroke-linecap="round" stroke-linejoin="round"></path>
  </symbol>
  
  <symbol fill="none" xmlns="http://www.w3.org/2000/svg" viewBox="0 0 20 20" id="tasks">
    <path d="M10.3083 7.39999H14.6834" stroke-width="1.5" stroke-linecap="round" stroke-linejoin="round"></path>
    <path d="M5.31665 7.39999L5.94165 8.02499L7.81665 6.14999" stroke-width="1.5" stroke-linecap="round" stroke-linejoin="round"></path>
    <path d="M10.3083 13.2333H14.6834" stroke-width="1.5" stroke-linecap="round" stroke-linejoin="round"></path>
    <path d="M5.31665 13.2333L5.94165 13.8583L7.81665 11.9833" stroke-width="1.5" stroke-linecap="round" stroke-linejoin="round"></path>
    <path d="M7.50002 18.3333H12.5C16.6667 18.3333 18.3334 16.6667 18.3334 12.5V7.50001C18.3334 3.33334 16.6667 1.66667 12.5 1.66667H7.50002C3.33335 1.66667 1.66669 3.33334 1.66669 7.50001V12.5C1.66669 16.6667 3.33335 18.3333 7.50002 18.3333Z" stroke-width="1.5" stroke-linecap="round" stroke-linejoin="round"></path>
  </symbol>

  <symbol fill="none" xmlns="http://www.w3.org/2000/svg" viewBox="0 0 20 20" id="members">
    <path d="M9.54998 11.4417C10.8432 11.4417 11.8916 10.3933 11.8916 9.1C11.8916 7.80673 10.8432 6.75833 9.54998 6.75833C8.25671 6.75833 7.20831 7.80673 7.20831 9.1C7.20831 10.3933 8.25671 11.4417 9.54998 11.4417Z" stroke-width="1.5" stroke-linecap="round" stroke-linejoin="round"></path>
    <path d="M13.875 16.8334C13.875 14.8917 11.9416 13.3083 9.54997 13.3083C7.15831 13.3083 5.22498 14.8834 5.22498 16.8334" stroke-width="1.5" stroke-linecap="round" stroke-linejoin="round"></path>
    <path d="M17.5 10.4167C17.5 14.7917 13.9584 18.3333 9.58335 18.3333C5.20835 18.3333 1.66669 14.7917 1.66669 10.4167C1.66669 6.04167 5.20835 2.5 9.58335 2.5C10.675 2.5 11.7167 2.71666 12.6667 3.11666C12.5584 3.44999 12.5 3.8 12.5 4.16667C12.5 4.79167 12.675 5.38333 12.9834 5.88333C13.15 6.16666 13.3667 6.42498 13.6167 6.64164C14.2 7.17498 14.975 7.5 15.8334 7.5C16.2 7.5 16.55 7.44165 16.875 7.32498C17.275 8.27498 17.5 9.325 17.5 10.4167Z" stroke-width="1.5" stroke-linecap="round" stroke-linejoin="round"></path>
    <path d="M19.1667 4.16668C19.1667 4.43334 19.1333 4.69167 19.0667 4.94167C18.9917 5.275 18.8583 5.60001 18.6833 5.88334C18.2833 6.55834 17.6417 7.08333 16.875 7.32499C16.55 7.44166 16.2 7.50001 15.8333 7.50001C14.975 7.50001 14.2 7.17499 13.6167 6.64165C13.3667 6.42499 13.15 6.16667 12.9833 5.88334C12.675 5.38334 12.5 4.79168 12.5 4.16668C12.5 3.80001 12.5583 3.45 12.6667 3.11667C12.825 2.63334 13.0917 2.20003 13.4417 1.8417C14.05 1.2167 14.9 0.833344 15.8333 0.833344C16.8167 0.833344 17.7083 1.25836 18.3083 1.94169C18.8417 2.53336 19.1667 3.31668 19.1667 4.16668Z" stroke-width="1.5" stroke-miterlimit="10" stroke-linecap="round" stroke-linejoin="round"></path>
    <path d="M17.075 4.14999H14.5917" stroke-width="1.5" stroke-miterlimit="10" stroke-linecap="round" stroke-linejoin="round"></path>
    <path d="M15.8333 2.93335V5.42501" stroke-width="1.5" stroke-miterlimit="10" stroke-linecap="round" stroke-linejoin="round"></path>
  </symbol>
</svg>