<svg width="0" height="0" class="hidden">
  <symbol xmlns="http://www.w3.org/2000/svg" viewBox="0 0 40 40" id="profile">
    <path d="M20 0C8.95546 0 0 8.9537 0 19.9991C0 31.0445 8.95458 39.9982 20 39.9982C31.0463 39.9982 40 31.0445 40 19.9991C40 8.9537 31.0463 0 20 0ZM20 5.97997C23.6546 5.97997 26.616 8.94228 26.616 12.5951C26.616 16.2488 23.6546 19.2102 20 19.2102C16.3472 19.2102 13.3858 16.2488 13.3858 12.5951C13.3858 8.94228 16.3472 5.97997 20 5.97997ZM19.9956 34.7694C16.3507 34.7694 13.0124 33.442 10.4375 31.2448C9.81024 30.7098 9.4483 29.9253 9.4483 29.1022C9.4483 25.3975 12.4466 22.4326 16.1522 22.4326H23.8496C27.556 22.4326 30.5429 25.3975 30.5429 29.1022C30.5429 29.9262 30.1827 30.709 29.5546 31.244C26.9806 33.442 23.6414 34.7694 19.9956 34.7694Z"></path>
  </symbol>
  <symbol xmlns="http://www.w3.org/2000/svg" viewBox="0 0 40 40" id="home">
    <path d="M40.0001 28.3951H14.2422V39.9994H40.0001V28.3951Z"></path>
    <path d="M40.0001 14.1537H14.2422V25.7579H40.0001V14.1537Z"></path>
    <path d="M39.9994 0H0V11.5163H39.9994V0Z"></path>
    <path d="M11.6042 14.1537H0V39.9995H11.6042V14.1537Z"></path>
  </symbol>
  <symbol xmlns="http://www.w3.org/2000/svg" viewBox="0 0 40 40" id="history">
    <path d="M40 19.9622C40.0204 30.9816 31.0338 39.9923 20.0145 40C15.2552 40.0034 10.8836 38.3443 7.44822 35.5717C6.55491 34.8507 6.48814 33.5119 7.29991 32.7001L8.20854 31.7915C8.90281 31.0972 10.0112 31.0213 10.7804 31.6315C13.3114 33.64 16.5146 34.8388 20 34.8388C28.202 34.8388 34.8387 28.2008 34.8387 20C34.8387 11.798 28.2007 5.1613 20 5.1613C16.0634 5.1613 12.488 6.69106 9.83322 9.18808L13.9263 13.2812C14.7392 14.0941 14.1635 15.4839 13.0139 15.4839H1.29032C0.577661 15.4839 0 14.9062 0 14.1936V2.46992C0 1.32041 1.38984 0.744679 2.20274 1.5575L6.18435 5.53912C9.77491 2.10775 14.6413 0 20 0C31.033 0 39.9796 8.93389 40 19.9622ZM25.4103 26.3158L26.2025 25.2972C26.8588 24.4534 26.7068 23.2374 25.863 22.5812L22.5806 20.0282V11.6129C22.5806 10.544 21.7141 9.67744 20.6451 9.67744H19.3548C18.2859 9.67744 17.4193 10.544 17.4193 11.6129V22.5525L22.6943 26.6553C23.538 27.3115 24.754 27.1596 25.4103 26.3158Z"></path>
  </symbol>
</svg>