<svg width="41" height="44" viewBox="0 0 41 44" fill="none" xmlns="http://www.w3.org/2000/svg">
<path opacity="0.4" d="M40.2917 15.4375V33.6875C40.2917 34.0208 40.2708 34.3542 40.25 34.6667H0.750014C0.729181 34.3542 0.708347 34.0208 0.708347 33.6875V15.4375C0.708347 12.7467 1.77728 10.166 3.67999 8.26332C5.58271 6.36061 8.16334 5.29167 10.8542 5.29167H30.1458C32.8367 5.29167 35.4173 6.36061 37.32 8.26332C39.2227 10.166 40.2917 12.7467 40.2917 15.4375V15.4375Z" fill="#98A2B3"/>
<path d="M40.25 34.6708C40.0039 37.1803 38.8332 39.5085 36.9657 41.2027C35.0982 42.897 32.6673 43.8361 30.1458 43.8375H10.8542C5.58335 43.8375 1.25002 39.8167 0.750015 34.6708H40.25V34.6708ZM23.6875 22.2125C24.625 21.5667 25.2083 20.6083 25.2083 19.3167C25.2083 16.6083 23.0417 15.2125 20.5 15.2125C17.9583 15.2125 15.7708 16.6083 15.7708 19.3167C15.7708 20.6083 16.375 21.5875 17.2917 22.2125C16.0208 22.9625 15.2917 24.1708 15.2917 25.5875C15.2917 28.1708 17.2708 29.775 20.5 29.775C23.7083 29.775 25.7083 28.1708 25.7083 25.5875C25.7083 24.1708 24.9792 22.9417 23.6875 22.2125ZM20.5 17.7958C21.5833 17.7958 22.375 18.4 22.375 19.4417C22.375 20.4625 21.5833 21.1083 20.5 21.1083C19.4167 21.1083 18.625 20.4625 18.625 19.4417C18.625 18.4 19.4167 17.7958 20.5 17.7958V17.7958ZM20.5 27.1708C19.125 27.1708 18.125 26.4833 18.125 25.2333C18.125 23.9833 19.125 23.3167 20.5 23.3167C21.875 23.3167 22.875 24.0042 22.875 25.2333C22.875 26.4833 21.875 27.1708 20.5 27.1708Z" fill="#002A58"/>
<path fill-rule="evenodd" clip-rule="evenodd" d="M12.1667 0.604172C12.5811 0.604172 12.9785 0.768792 13.2715 1.06182C13.5646 1.35484 13.7292 1.75227 13.7292 2.16667V8.41667C13.7292 8.83107 13.5646 9.2285 13.2715 9.52153C12.9785 9.81455 12.5811 9.97917 12.1667 9.97917C11.7523 9.97917 11.3549 9.81455 11.0618 9.52153C10.7688 9.2285 10.6042 8.83107 10.6042 8.41667V2.16667C10.6042 1.75227 10.7688 1.35484 11.0618 1.06182C11.3549 0.768792 11.7523 0.604172 12.1667 0.604172ZM28.8333 0.604172C29.2477 0.604172 29.6452 0.768792 29.9382 1.06182C30.2312 1.35484 30.3958 1.75227 30.3958 2.16667V8.41667C30.3958 8.83107 30.2312 9.2285 29.9382 9.52153C29.6452 9.81455 29.2477 9.97917 28.8333 9.97917C28.4189 9.97917 28.0215 9.81455 27.7285 9.52153C27.4355 9.2285 27.2708 8.83107 27.2708 8.41667V2.16667C27.2708 1.75227 27.4355 1.35484 27.7285 1.06182C28.0215 0.768792 28.4189 0.604172 28.8333 0.604172Z" fill="#002A58"/>
</svg>
