<svg width="37" height="42" viewBox="0 0 37 42" fill="none" xmlns="http://www.w3.org/2000/svg">
<path d="M32.0417 4.56252L21.6459 0.666687C19.9167 0.0208537 17.0834 0.0208537 15.3542 0.666687L4.95835 4.56252C2.56252 5.45835 0.604187 8.29169 0.604187 10.8334V26.3125C0.604187 28.7709 2.22919 32 4.20835 33.4792L13.1667 40.1667C16.1042 42.375 20.9375 42.375 23.875 40.1667L32.8334 33.4792C34.8125 32 36.4375 28.7709 36.4375 26.3125V10.8334C36.3959 8.29169 34.4375 5.45835 32.0417 4.56252V4.56252ZM18.3542 10.6459C20.8125 10.6459 22.8125 12.6459 22.8125 15.1042C22.8125 17.5209 20.9167 19.4584 18.5209 19.5417H18.3125C15.8125 19.4584 13.9375 17.5209 13.9375 15.1042C13.9167 12.6459 15.9167 10.6459 18.3542 10.6459V10.6459ZM23.0625 30.0834C21.7917 30.9167 20.1459 31.3542 18.5 31.3542C16.8542 31.3542 15.1875 30.9375 13.9375 30.0834C12.75 29.2917 12.1042 28.2084 12.0834 27.0209C12.0834 25.8542 12.75 24.7292 13.9375 23.9375C16.4584 22.2709 20.5625 22.2709 23.0834 23.9375C24.2709 24.7292 24.9375 25.8125 24.9375 27C24.9167 28.1667 24.25 29.2917 23.0625 30.0834Z" fill="#002A58"/>
</svg>
