<svg width="42" height="43" viewBox="0 0 42 43" fill="none" xmlns="http://www.w3.org/2000/svg">
<path opacity="0.4" d="M32.5208 12.1875C32.3757 12.1667 32.2284 12.1667 32.0833 12.1875C30.5274 12.1366 29.0524 11.4817 27.9712 10.3616C26.89 9.24148 26.2876 7.74431 26.2917 6.18752C26.2917 2.87502 28.9792 0.166687 32.3125 0.166687C35.625 0.166687 38.3333 2.85419 38.3333 6.18752C38.3289 7.74529 37.7208 9.2407 36.6369 10.3596C35.553 11.4784 34.0777 12.1336 32.5208 12.1875V12.1875ZM39.3167 26.625C36.9833 28.1875 33.7125 28.7709 30.6917 28.375C31.4833 26.6667 31.9 24.7709 31.9208 22.7709C31.9208 20.6875 31.4625 18.7084 30.5875 16.9792C33.6708 16.5625 36.9417 17.1459 39.2958 18.7084C42.5875 20.875 42.5875 24.4375 39.3167 26.625ZM9.4125 12.1875C9.55833 12.1667 9.70417 12.1667 9.85 12.1875C11.406 12.1366 12.8809 11.4817 13.9621 10.3616C15.0433 9.24148 15.6457 7.74431 15.6417 6.18752C15.6417 2.87502 12.9542 0.166687 9.62083 0.166687C6.30833 0.166687 3.6 2.85419 3.6 6.18752C3.60446 7.74529 4.21251 9.2407 5.2964 10.3596C6.3803 11.4784 7.85566 12.1336 9.4125 12.1875V12.1875ZM9.64792 22.7709C9.64792 24.7917 10.0854 26.7084 10.8771 28.4375C7.93958 28.75 4.87708 28.125 2.62708 26.6459C-0.664584 24.4584 -0.664584 20.8959 2.62708 18.7084C4.85625 17.2084 8.00208 16.6042 10.9604 16.9375C10.1062 18.6875 9.64792 20.6667 9.64792 22.7709V22.7709Z" fill="#98A2B3"/>
<path d="M21.25 29.0625C21.07 29.0417 20.8883 29.0417 20.7083 29.0625C18.8559 29.0003 17.1004 28.2197 15.8134 26.886C14.5263 25.5523 13.8087 23.7701 13.8125 21.9167C13.8125 17.9583 17 14.75 20.9792 14.75C24.9375 14.75 28.1458 17.9583 28.1458 21.9167C28.1458 25.7917 25.1042 28.9375 21.25 29.0625V29.0625ZM14.4792 33.375C11.3333 35.4792 11.3333 38.9375 14.4792 41.0208C18.0625 43.4167 23.9375 43.4167 27.5208 41.0208C30.6667 38.9167 30.6667 35.4583 27.5208 33.375C23.9583 30.9792 18.0833 30.9792 14.4792 33.375V33.375Z" fill="#002A58"/>
</svg>
