<svg width="43" height="42" viewBox="0 0 43 42" fill="none" xmlns="http://www.w3.org/2000/svg">
<path d="M18.8958 1.10417C20.3333 -0.124995 22.6875 -0.124995 24.1458 1.10417L27.4375 3.93751C28.0625 4.47917 29.2291 4.91667 30.0625 4.91667H33.6041C35.8125 4.91667 37.625 6.72917 37.625 8.93751V12.4792C37.625 13.2917 38.0625 14.4792 38.6041 15.1042L41.4375 18.3958C42.6666 19.8333 42.6666 22.1875 41.4375 23.6458L38.6041 26.9375C38.0625 27.5625 37.625 28.7292 37.625 29.5625V33.1042C37.625 35.3125 35.8125 37.125 33.6041 37.125H30.0625C29.25 37.125 28.0625 37.5625 27.4375 38.1042L24.1458 40.9375C22.7083 42.1667 20.3541 42.1667 18.8958 40.9375L15.6041 38.1042C14.9791 37.5625 13.8125 37.125 12.9791 37.125H9.37498C7.16665 37.125 5.35415 35.3125 5.35415 33.1042V29.5417C5.35415 28.7292 4.91665 27.5625 4.39581 26.9375L1.58331 23.625C0.37498 22.1875 0.37498 19.8542 1.58331 18.4167L4.39581 15.1042C4.91665 14.4792 5.35415 13.3125 5.35415 12.5V8.91667C5.35415 6.70834 7.16665 4.89584 9.37498 4.89584H12.9791C13.7916 4.89584 14.9791 4.45834 15.6041 3.91667L18.8958 1.10417V1.10417Z" fill="#002A58"/>
<path d="M18.9791 27.6062C18.5649 27.6059 18.1677 27.441 17.875 27.1479L12.8333 22.1062C12.5427 21.8122 12.3798 21.4155 12.3798 21.0021C12.3798 20.5887 12.5427 20.1919 12.8333 19.8979C13.4375 19.2937 14.4375 19.2937 15.0416 19.8979L18.9791 23.8354L27.9375 14.8771C28.5416 14.2729 29.5416 14.2729 30.1458 14.8771C30.75 15.4812 30.75 16.4812 30.1458 17.0854L20.0833 27.1479C19.7906 27.441 19.3934 27.6059 18.9791 27.6062V27.6062Z" fill="#F2F4F7"/>
</svg>
