<svg width="41" height="41" viewBox="0 0 41 41" fill="none" xmlns="http://www.w3.org/2000/svg">
<path d="M20.5 0C9.17935 0 0 9.17755 0 20.4991C0 31.8207 9.17845 40.9982 20.5 40.9982C31.8225 40.9982 41 31.8207 41 20.4991C41 9.17755 31.8225 0 20.5 0ZM20.5 6.12947C24.2459 6.12947 27.2814 9.16584 27.2814 12.91C27.2814 16.655 24.2459 19.6905 20.5 19.6905C16.7559 19.6905 13.7204 16.655 13.7204 12.91C13.7204 9.16584 16.7559 6.12947 20.5 6.12947ZM20.4955 35.6386C16.7595 35.6386 13.3377 34.278 10.6984 32.026C10.0555 31.4776 9.68451 30.6735 9.68451 29.8297C9.68451 26.0325 12.7578 22.9934 16.556 22.9934H24.4458C28.2449 22.9934 31.3065 26.0325 31.3065 29.8297C31.3065 30.6744 30.9373 31.4767 30.2935 32.0251C27.6551 34.278 24.2324 35.6386 20.4955 35.6386Z" fill="white"/>
</svg>
