<svg width="24" height="24" viewBox="0 0 24 24" fill="none" xmlns="http://www.w3.org/2000/svg">
<path d="M12.02 2.90991C8.71003 2.90991 6.02003 5.59991 6.02003 8.90991V11.7999C6.02003 12.4099 5.76003 13.3399 5.45003 13.8599L4.30003 15.7699C3.59003 16.9499 4.08003 18.2599 5.38003 18.6999C9.69003 20.1399 14.34 20.1399 18.65 18.6999C19.86 18.2999 20.39 16.8699 19.73 15.7699L18.58 13.8599C18.28 13.3399 18.02 12.4099 18.02 11.7999V8.90991C18.02 5.60991 15.32 2.90991 12.02 2.90991Z" stroke="#BFBFBF" stroke-width="1.5" stroke-miterlimit="10" stroke-linecap="round"/>
<path d="M13.87 3.19994C13.56 3.10994 13.24 3.03994 12.91 2.99994C11.95 2.87994 11.03 2.94994 10.17 3.19994C10.46 2.45994 11.18 1.93994 12.02 1.93994C12.86 1.93994 13.58 2.45994 13.87 3.19994Z" stroke="#BFBFBF" stroke-width="1.5" stroke-miterlimit="10" stroke-linecap="round" stroke-linejoin="round"/>
<path d="M15.02 19.0599C15.02 20.7099 13.67 22.0599 12.02 22.0599C11.2 22.0599 10.44 21.7199 9.90002 21.1799C9.36002 20.6399 9.02002 19.8799 9.02002 19.0599" stroke="#BFBFBF" stroke-width="1.5" stroke-miterlimit="10"/>
</svg>
